HIERARCHY
ROOT Hips
{
    OFFSET 0.000000 0.000000 0.000000
    CHANNELS 6 Xposition Yposition Zposition Zrotation Xrotation Yrotation
    JOINT Spine
    {
        OFFSET -0.000000 0.076824 0.000000
        CHANNELS 3 Zrotation Xrotation Yrotation
        JOINT Spine1
        {
            OFFSET -0.000000 0.205639 0.000000
            CHANNELS 3 Zrotation Xrotation Yrotation
            JOINT Neck
            {
                OFFSET -0.000000 0.204794 0.018618
                CHANNELS 3 Zrotation Xrotation Yrotation
                JOINT Head
                {
                    OFFSET -0.000000 0.131164 -0.018738
                    CHANNELS 3 Zrotation Xrotation Yrotation
                    End Site
                    {
                        OFFSET -0.000000 0.187377 0.000000
                    }
                }
            }
            JOINT LeftShoulder
            {
                OFFSET 0.037892 0.189814 -0.002396
                CHANNELS 3 Zrotation Xrotation Yrotation
                JOINT LeftArm
                {
                    OFFSET 0.104721 0.000000 0.000000
                    CHANNELS 3 Zrotation Xrotation Yrotation
                    JOINT LeftForeArm
                    {
                        OFFSET 0.316555 0.000000 0.000000
                        CHANNELS 3 Zrotation Xrotation Yrotation
                        JOINT LeftHand
                        {
                            OFFSET 0.270628 0.000000 0.000000
                            CHANNELS 3 Zrotation Xrotation Yrotation
                            JOINT LeftHandThumb1
                            {
                                OFFSET 0.023422 -0.014053 0.046844
                                CHANNELS 3 Zrotation Xrotation Yrotation
                                JOINT LeftHandThumb2
                                {
                                    OFFSET 0.028107 0.000000 0.000000
                                    CHANNELS 3 Zrotation Xrotation Yrotation
                                    JOINT LeftHandThumb3
                                    {
                                        OFFSET 0.028107 0.000000 0.000000
                                        CHANNELS 3 Zrotation Xrotation Yrotation
                                        End Site
                                        {
                                            OFFSET 0.026333 0.000000 0.000000
                                        }
                                    }
                                }
                            }
                            JOINT LeftHandIndex1
                            {
                                OFFSET 0.084320 0.000000 0.032791
                                CHANNELS 3 Zrotation Xrotation Yrotation
                                JOINT LeftHandIndex2
                                {
                                    OFFSET 0.046844 0.000000 0.000000
                                    CHANNELS 3 Zrotation Xrotation Yrotation
                                    JOINT LeftHandIndex3
                                    {
                                        OFFSET 0.023422 0.000000 0.000000
                                        CHANNELS 3 Zrotation Xrotation Yrotation
                                        End Site
                                        {
                                            OFFSET 0.021944 0.000000 0.000000
                                        }
                                    }
                                }
                            }
                            JOINT LeftHandMiddle1
                            {
                                OFFSET 0.084320 0.000000 0.010868
                                CHANNELS 3 Zrotation Xrotation Yrotation
                                JOINT LeftHandMiddle2
                                {
                                    OFFSET 0.051529 0.000000 0.000000
                                    CHANNELS 3 Zrotation Xrotation Yrotation
                                    JOINT LeftHandMiddle3
                                    {
                                        OFFSET 0.028107 0.000000 0.000000
                                        CHANNELS 3 Zrotation Xrotation Yrotation
                                        End Site
                                        {
                                            OFFSET 0.026333 0.000000 0.000000
                                        }
                                    }
                                }
                            }
                            JOINT LeftHandRing1
                            {
                                OFFSET 0.079635 0.000000 -0.010868
                                CHANNELS 3 Zrotation Xrotation Yrotation
                                JOINT LeftHandRing2
                                {
                                    OFFSET 0.046844 0.000000 0.000000
                                    CHANNELS 3 Zrotation Xrotation Yrotation
                                    JOINT LeftHandRing3
                                    {
                                        OFFSET 0.023422 0.000000 0.000000
                                        CHANNELS 3 Zrotation Xrotation Yrotation
                                        End Site
                                        {
                                            OFFSET 0.021944 0.000000 0.000000
                                        }
                                    }
                                }
                            }
                            JOINT LeftHandPinky1
                            {
                                OFFSET 0.074951 0.000000 -0.032791
                                CHANNELS 3 Zrotation Xrotation Yrotation
                                JOINT LeftHandPinky2
                                {
                                    OFFSET 0.037475 0.000000 0.000000
                                    CHANNELS 3 Zrotation Xrotation Yrotation
                                    JOINT LeftHandPinky3
                                    {
                                        OFFSET 0.018738 0.000000 0.000000
                                        CHANNELS 3 Zrotation Xrotation Yrotation
                                        End Site
                                        {
                                            OFFSET 0.017555 0.000000 0.000000
                                        }
                                    }
                                }
                            }
                        }
                    }
                }
            }
            JOINT RightShoulder
            {
                OFFSET -0.036963 0.189814 -0.002396
                CHANNELS 3 Zrotation Xrotation Yrotation
                JOINT RightArm
                {
                    OFFSET -0.104721 0.000000 0.000000
                    CHANNELS 3 Zrotation Xrotation Yrotation
                    JOINT RightForeArm
                    {
                        OFFSET -0.316555 0.000000 0.000000
                        CHANNELS 3 Zrotation Xrotation Yrotation
                        JOINT RightHand
                        {
                            OFFSET -0.270628 0.000000 0.000000
                            CHANNELS 3 Zrotation Xrotation Yrotation
                            JOINT RightHandThumb1
                            {
                                OFFSET -0.023422 -0.014053 0.046844
                                CHANNELS 3 Zrotation Xrotation Yrotation
                                JOINT RightHandThumb2
                                {
                                    OFFSET -0.028107 0.000000 0.000000
                                    CHANNELS 3 Zrotation Xrotation Yrotation
                                    JOINT RightHandThumb3
                                    {
                                        OFFSET -0.028107 0.000000 0.000000
                                        CHANNELS 3 Zrotation Xrotation Yrotation
                                        End Site
                                        {
                                            OFFSET -0.026333 0.000000 0.000000
                                        }
                                    }
                                }
                            }
                            JOINT RightHandIndex1
                            {
                                OFFSET -0.084320 0.000000 0.032791
                                CHANNELS 3 Zrotation Xrotation Yrotation
                                JOINT RightHandIndex2
                                {
                                    OFFSET -0.046844 0.000000 0.000000
                                    CHANNELS 3 Zrotation Xrotation Yrotation
                                    JOINT RightHandIndex3
                                    {
                                        OFFSET -0.023422 0.000000 0.000000
                                        CHANNELS 3 Zrotation Xrotation Yrotation
                                        End Site
                                        {
                                            OFFSET -0.021944 0.000000 0.000000
                                        }
                                    }
                                }
                            }
                            JOINT RightHandMiddle1
                            {
                                OFFSET -0.084320 0.000000 0.010868
                                CHANNELS 3 Zrotation Xrotation Yrotation
                                JOINT RightHandMiddle2
                                {
                                    OFFSET -0.051529 0.000000 0.000000
                                    CHANNELS 3 Zrotation Xrotation Yrotation
                                    JOINT RightHandMiddle3
                                    {
                                        OFFSET -0.028107 0.000000 0.000000
                                        CHANNELS 3 Zrotation Xrotation Yrotation
                                        End Site
                                        {
                                            OFFSET -0.026333 0.000000 0.000000
                                        }
                                    }
                                }
                            }
                            JOINT RightHandRing1
                            {
                                OFFSET -0.079635 0.000000 -0.010868
                                CHANNELS 3 Zrotation Xrotation Yrotation
                                JOINT RightHandRing2
                                {
                                    OFFSET -0.046844 0.000000 0.000000
                                    CHANNELS 3 Zrotation Xrotation Yrotation
                                    JOINT RightHandRing3
                                    {
                                        OFFSET -0.023422 0.000000 0.000000
                                        CHANNELS 3 Zrotation Xrotation Yrotation
                                        End Site
                                        {
                                            OFFSET -0.021944 0.000000 0.000000
                                        }
                                    }
                                }
                            }
                            JOINT RightHandPinky1
                            {
                                OFFSET -0.074951 0.000000 -0.032791
                                CHANNELS 3 Zrotation Xrotation Yrotation
                                JOINT RightHandPinky2
                                {
                                    OFFSET -0.037475 0.000000 0.000000
                                    CHANNELS 3 Zrotation Xrotation Yrotation
                                    JOINT RightHandPinky3
                                    {
                                        OFFSET -0.018738 0.000000 0.000000
                                        CHANNELS 3 Zrotation Xrotation Yrotation
                                        End Site
                                        {
                                            OFFSET -0.017555 0.000000 0.000000
                                        }
                                    }
                                }
                            }
                        }
                    }
                }
            }
        }
    }
    JOINT LeftUpLeg
    {
        OFFSET 0.093688 0.000000 0.000000
        CHANNELS 3 Zrotation Xrotation Yrotation
        JOINT LeftLeg
        {
            OFFSET -0.000000 -0.377687 0.000000
            CHANNELS 3 Zrotation Xrotation Yrotation
            JOINT LeftFoot
            {
                OFFSET -0.000000 -0.399231 0.000000
                CHANNELS 3 Zrotation Xrotation Yrotation
                JOINT LeftToeBase
                {
                    OFFSET -0.000000 -0.060897 0.140533
                    CHANNELS 3 Zrotation Xrotation Yrotation
                    End Site
                    {
                        OFFSET -0.000000 0.000000 0.037475
                    }
                }
            }
        }
    }
    JOINT RightUpLeg
    {
        OFFSET -0.093688 0.000000 0.000000
        CHANNELS 3 Zrotation Xrotation Yrotation
        JOINT RightLeg
        {
            OFFSET -0.000000 -0.377687 0.000000
            CHANNELS 3 Zrotation Xrotation Yrotation
            JOINT RightFoot
            {
                OFFSET -0.000000 -0.399231 0.000000
                CHANNELS 3 Zrotation Xrotation Yrotation
                JOINT RightToeBase
                {
                    OFFSET -0.000000 -0.060897 0.140533
                    CHANNELS 3 Zrotation Xrotation Yrotation
                    End Site
                    {
                        OFFSET -0.000000 0.000000 0.037475
                    }
                }
            }
        }
    }
}
MOTION
Frames:    4
Frame Time:    0.040000
-0.219396    0.867626    0.823395    2.835602    3.217493    -6.632748    -4.887628    -13.467336    -1.303466    3.193692    2.594052    -0.305226    5.410367    23.55233    15.665179    -8.679907    -5.287592    15.089542    19.62047    -1.761466    -4.33102    -16.683197    2.388724    -10.529162    0.0    25.32127    9.865902    15.391929    -13.193445    0.0    -38.652378    6.73353    -34.696194    0.0    0.0    0.0    0.0    0.0    0.0    0.0    0.0    0.0    0.0    0.0    0.0    0.0    0.0    0.0    6.977009    0.0    -0.0    0.0    0.0    0.0    0.0    0.0    0.0    13.954018    0.0    -0.0    0.0    0.0    0.0    0.0    0.0    0.0    21.142448    0.0    -0.0    0.0    0.0    0.0    0.0    0.0    0.0    -13.403252    0.222202    -5.096663    16.91391    1.528819    15.708851    0.0    3.586461    -6.230311    -12.398558    7.460249    0.0    23.072506    -1.541701    24.241489    0.0    0.0    0.0    0.0    0.0    0.0    0.0    0.0    0.0    0.0    0.0    0.0    0.0    0.0    0.0    0.292898    0.0    -0.0    0.585798    0.0    -0.0    0.292898    0.0    -0.0    0.585799    0.0    -0.0    1.171596    0.0    -0.0    0.585799    0.0    -0.0    0.887573    0.0    -0.0    1.775145    0.0    -0.0    0.887573    0.0    -0.0    3.806348    -4.060638    -4.091863    0.2    15.697334    1.0    -5.0    -18.243383    0.0    1.74419    5.90872    -4.037295    -14.868312    7.493026    2.937076    0.2    1.30204    -1.0    2.304142    -8.145934    0.0    0.88481    1.291039    -3.48957
-0.220112    0.867318    0.822004    2.728013    2.756745    -6.492217    -4.849954    -12.791393    -1.217219    2.901063    2.71007    -0.284299    5.396631    23.338102    15.455367    -8.769411    -5.863932    14.798106    19.537037    -1.485683    -4.138147    -16.592508    2.454139    -10.86613    0.0    25.321625    9.731318    15.601915    -13.193623    0.0    -38.009819    6.315763    -34.311512    0.0    0.0    0.0    0.0    0.0    0.0    0.0    0.0    0.0    0.0    0.0    0.0    0.0    0.0    0.0    7.135972    0.0    -0.0    0.0    0.0    0.0    0.0    0.0    0.0    14.271941    0.0    -0.0    0.0    0.0    0.0    0.0    0.0    0.0    21.624151    0.0    -0.0    0.0    0.0    0.0    0.0    0.0    0.0    -13.179616    0.475127    -4.864467    17.090666    0.554608    15.528865    0.0    4.572227    -6.852195    -12.458173    7.214272    0.0    23.499453    -1.274653    24.324404    0.0    0.0    0.0    0.0    0.0    0.0    0.0    0.0    0.0    0.0    0.0    0.0    0.0    0.0    0.0    0.457912    0.0    -0.0    0.91583    0.0    -0.0    0.457912    0.0    -0.0    0.915832    0.0    -0.0    1.83166    0.0    -0.0    0.915832    0.0    -0.0    1.387621    0.0    -0.0    2.775242    0.0    -0.0    1.387621    0.0    -0.0    3.79343    -4.152639    -3.809698    0.2    16.503775    1.0    -5.0    -18.591286    0.0    1.674016    5.943395    -3.851086    -14.73195    7.777894    2.963027    0.2    1.529107    -1.0    2.224807    -8.269677    0.0    0.895099    1.461127    -3.520859
-0.220746    0.867459    0.82125    2.588824    2.452003    -6.741116    -4.854289    -12.428277    -0.802879    3.004127    2.773821    -0.156135    5.396449    23.498158    15.154001    -9.241637    -6.493323    14.352888    19.488218    -0.855652    -3.994884    -16.726879    2.490946    -11.481208    0.0    25.250683    9.559532    15.84169    -13.439469    0.0    -38.649055    6.924629    -34.333687    0.0    0.0    0.0    0.0    0.0    0.0    0.0    0.0    0.0    0.0    0.0    0.0    0.0    0.0    0.0    6.936422    0.0    -0.0    0.0    0.0    0.0    0.0    0.0    0.0    13.872845    0.0    -0.0    0.0    0.0    0.0    0.0    0.0    0.0    21.019464    0.0    -0.0    0.0    0.0    0.0    0.0    0.0    0.0    -13.209286    0.580693    -4.954315    17.17811    0.129912    15.492542    0.0    5.042863    -7.102013    -12.35579    7.111764    0.0    23.496994    -1.24267    24.26329    0.0    0.0    0.0    0.0    0.0    0.0    0.0    0.0    0.0    0.0    0.0    0.0    0.0    0.0    0.0    0.591752    0.0    -0.0    1.183504    0.0    -0.0    0.591752    0.0    -0.0    1.183504    0.0    -0.0    2.367007    0.0    -0.0    1.183504    0.0    -0.0    1.793187    0.0    -0.0    3.586374    0.0    -0.0    1.793187    0.0    -0.0    3.940168    -4.006685    -3.514672    0.2    16.799835    1.0    -5.0    -18.489996    0.0    1.709968    5.889028    -3.952091    -14.664784    7.807453    2.939993    0.2    1.804763    -1.0    2.266317    -8.263103    0.0    0.872132    1.383672    -3.436403
-0.220775    0.867634    0.820999    2.561002    2.487585    -6.961834    -4.748066    -12.736475    -0.564899    2.868028    3.102385    -0.088328    5.35342    23.641846    14.944533    -9.501044    -6.769507    14.065735    19.401531    -0.877311    -4.157236    -16.812296    2.394413    -11.256586    0.0    25.710821    9.606149    16.282248    -13.195197    0.0    -38.569851    6.936728    -34.167767    0.0    0.0    0.0    0.0    0.0    0.0    0.0    0.0    0.0    0.0    0.0    0.0    0.0    0.0    0.0    6.554885    0.0    -0.0    0.0    0.0    0.0    0.0    0.0    0.0    13.109767    0.0    -0.0    0.0    0.0    0.0    0.0    0.0    0.0    19.863285    0.0    -0.0    0.0    0.0    0.0    0.0    0.0    0.0    -13.278901    0.559666    -5.02961    17.202217    0.878594    15.585484    0.0    3.992185    -6.757461    -12.115305    7.7504    0.0    23.150352    -1.588818    24.428127    0.0    0.0    0.0    0.0    0.0    0.0    0.0    0.0    0.0    0.0    0.0    0.0    0.0    0.0    0.0    0.695742    0.0    -0.0    1.391483    0.0    -0.0    0.695742    0.0    -0.0    1.391483    0.0    -0.0    2.782966    0.0    -0.0    1.391483    0.0    -0.0    2.108308    0.0    -0.0    4.216615    0.0    -0.0    2.108308    0.0    -0.0    3.932167    -4.031007    -3.314089    0.2    16.832165    1.0    -5.0    -18.537519    0.0    1.673247    5.871661    -3.860011    -14.642329    7.736206    2.747615    0.2    1.716554    -1.0    2.28454    -8.15907    0.0    0.856257    1.329897    -3.377792
